<?xml version="1.0" encoding="UTF-8" standalone="no"?>
<svg
   xmlns:dc="http://purl.org/dc/elements/1.1/"
   xmlns:cc="http://creativecommons.org/ns#"
   xmlns:rdf="http://www.w3.org/1999/02/22-rdf-syntax-ns#"
   xmlns:svg="http://www.w3.org/2000/svg"
   xmlns="http://www.w3.org/2000/svg"
   xmlns:sodipodi="http://sodipodi.sourceforge.net/DTD/sodipodi-0.dtd"
   xmlns:inkscape="http://www.inkscape.org/namespaces/inkscape"
   width="67.73333mm"
   height="67.73333mm"
   viewBox="0 0 67.73333 67.73333"
   version="1.1"
   id="svg8"
   inkscape:version="1.0.1 (3bc2e813f5, 2020-09-07)"
   sodipodi:docname="dispatchPlane.svg">
  <defs
     id="defs2" />
  <sodipodi:namedview
     id="base"
     pagecolor="#ffffff"
     bordercolor="#666666"
     borderopacity="1.0"
     inkscape:pageopacity="0.0"
     inkscape:pageshadow="2"
     inkscape:zoom="0.98994949"
     inkscape:cx="231.32989"
     inkscape:cy="189.98236"
     inkscape:document-units="mm"
     inkscape:current-layer="layer1"
     inkscape:document-rotation="0"
     showgrid="false"
     inkscape:snap-global="false"
     fit-margin-top="0"
     fit-margin-left="0"
     fit-margin-right="0"
     fit-margin-bottom="0"
     inkscape:window-width="1267"
     inkscape:window-height="1009"
     inkscape:window-x="485"
     inkscape:window-y="45"
     inkscape:window-maximized="0" />
  <metadata
     id="metadata5">
    <rdf:RDF>
      <cc:Work
         rdf:about="">
        <dc:format>image/svg+xml</dc:format>
        <dc:type
           rdf:resource="http://purl.org/dc/dcmitype/StillImage" />
        <dc:title></dc:title>
      </cc:Work>
    </rdf:RDF>
  </metadata>
  <g
     inkscape:label="Layer 1"
     inkscape:groupmode="layer"
     id="layer1"
     transform="translate(-72.722626,-103.71667)">
    <path
       style="fill:#4d4d4d;stroke-width:0.264583"
       d="m 77.164812,164.96784 c 0.14552,-0.14278 1.67613,-0.81515 3.40134,-1.49416 8.3753,-3.29635 17.19236,-8.30136 23.682608,-13.44345 l 2.21311,-1.7534 0.96189,0.48751 c 0.52904,0.26813 1.67626,0.70251 2.54939,0.96528 2.19672,0.66113 2.21671,0.72179 0.62094,1.88451 -8.05379,5.86818 -20.471468,11.20189 -30.074668,12.91783 -1.26295,0.22567 -2.59393,0.47447 -2.95773,0.5529 -0.43447,0.0936 -0.57066,0.0535 -0.39688,-0.11702 z m 8.59896,-18.31473 c -3.97423,-0.68221 -6.7076,-2.94909 -9.71273,-8.05508 -2.74381,-4.66198 -2.75662,-4.86411 -0.40169,-6.33713 2.05639,-1.28628 2.52165,-1.22467 6.90021,0.91368 l 3.79068,1.85124 4.73885,-2.67201 c 5.74031,-3.23669 5.93005,-2.33382 -1.49938,-7.13474 -7.86839,-5.08457 -8.21033,-5.58075 -5.08367,-7.37668 4.89155,-2.80966 5.68813,-2.86995 16.348978,-1.23746 4.29287,0.65737 9.2032,1.39385 10.91187,1.63663 l 3.10665,0.44142 6.55064,-2.64412 c 7.08197,-2.85859 10.3855,-3.84038 12.49567,-3.71361 2.05119,0.12322 1.69007,0.48382 -2.09061,2.08758 -4.95618,2.1024 -5.14724,2.45334 -2.2781,4.18426 1.92951,1.16405 2.38102,1.12693 6.19298,-0.50913 3.67485,-1.57721 3.85879,-1.55091 3.67058,0.52467 -0.40377,4.4529 -1.96609,5.78436 -15.14405,12.9063 -25.608008,13.83968 -31.817438,16.28077 -38.496878,15.13418 z M 101.4595,135.53679 c 1.73554,-0.94001 1.72016,-0.88847 0.80603,-2.7009 -0.92378,-1.83158 -1.00673,-1.86007 -2.791818,-0.95897 -1.82847,0.92301 -1.93213,1.3689 -0.75118,3.23107 0.93371,1.47232 0.838,1.45732 2.736968,0.4288 z m 7.52146,-3.95671 c 1.59762,-0.91623 1.65341,-1.1633 0.66146,-2.92947 -0.84259,-1.50022 -1.14311,-1.56365 -2.98536,-0.63012 -1.47531,0.7476 -1.54991,1.0038 -0.75294,2.58578 1.05472,2.09357 1.09956,2.10777 3.07684,0.97381 z m 7.022,-3.72716 c 2.0911,-1.05123 2.12698,-1.13483 1.24056,-2.89083 -1.01177,-2.00429 -1.04608,-2.01641 -2.90466,-1.02579 -1.76507,0.94077 -1.8288,1.10848 -1.0264,2.70122 1.01972,2.02411 1.05242,2.03889 2.6905,1.2154 z m -5.19197,17.31693 c -0.097,-0.097 -0.17639,-1.21851 -0.17639,-2.49222 v -2.31584 l 4.87416,-2.53486 c 4.35631,-2.26554 5.70918,-2.83404 5.70918,-2.39913 0,0.66494 -3.23312,6.75076 -3.83997,7.2281 -1.81604,1.4285 -6.03669,3.04424 -6.56698,2.51395 z"
       id="path54" />
  </g>
</svg>
