<?xml version="1.0" encoding="UTF-8" standalone="no"?>
<svg
   xmlns:dc="http://purl.org/dc/elements/1.1/"
   xmlns:cc="http://creativecommons.org/ns#"
   xmlns:rdf="http://www.w3.org/1999/02/22-rdf-syntax-ns#"
   xmlns:svg="http://www.w3.org/2000/svg"
   xmlns="http://www.w3.org/2000/svg"
   xmlns:sodipodi="http://sodipodi.sourceforge.net/DTD/sodipodi-0.dtd"
   xmlns:inkscape="http://www.inkscape.org/namespaces/inkscape"
   width="67.73333mm"
   height="67.73333mm"
   viewBox="0 0 67.73333 67.73333"
   version="1.1"
   id="svg8"
   inkscape:version="1.0.1 (3bc2e813f5, 2020-09-07)"
   sodipodi:docname="updateUser.svg">
  <defs
     id="defs2" />
  <sodipodi:namedview
     id="base"
     pagecolor="#ffffff"
     bordercolor="#666666"
     borderopacity="1.0"
     inkscape:pageopacity="0.0"
     inkscape:pageshadow="2"
     inkscape:zoom="0.98994949"
     inkscape:cx="231.32989"
     inkscape:cy="189.98236"
     inkscape:document-units="mm"
     inkscape:current-layer="layer1"
     inkscape:document-rotation="0"
     showgrid="false"
     inkscape:snap-global="false"
     fit-margin-top="0"
     fit-margin-left="0"
     fit-margin-right="0"
     fit-margin-bottom="0"
     inkscape:window-width="1267"
     inkscape:window-height="1009"
     inkscape:window-x="485"
     inkscape:window-y="45"
     inkscape:window-maximized="0" />
  <metadata
     id="metadata5">
    <rdf:RDF>
      <cc:Work
         rdf:about="">
        <dc:format>image/svg+xml</dc:format>
        <dc:type
           rdf:resource="http://purl.org/dc/dcmitype/StillImage" />
        <dc:title></dc:title>
      </cc:Work>
    </rdf:RDF>
  </metadata>
  <g
     inkscape:label="Layer 1"
     inkscape:groupmode="layer"
     id="layer1"
     transform="translate(-72.722626,-103.71667)">
    <path
       style="fill:#666666;stroke-width:0.476043"
       d="m 78.828197,168.00407 c -0.975896,-0.97588 -1.168467,-1.63026 -1.168467,-3.97021 0,-3.20563 1.401178,-9.15756 2.787638,-11.84135 1.224494,-2.37026 4.510355,-5.49186 7.195257,-6.83561 2.90286,-1.45281 7.339681,-1.7695 10.319421,-0.73654 3.594304,1.24597 8.021524,1.46541 11.512034,0.57054 1.65755,-0.42494 3.09149,-0.77262 3.18653,-0.77262 0.095,0 -0.2691,0.99897 -0.80918,2.21994 -0.79989,1.80828 -0.94262,2.89996 -0.7697,5.88713 0.31771,5.48823 2.85299,9.23892 7.75576,11.47385 2.65442,1.21005 7.89493,1.17381 10.64394,-0.0736 1.14135,-0.51789 2.15891,-0.94163 2.26121,-0.94163 0.10238,0 0.18604,0.86662 0.18604,1.92582 0,1.40996 -0.31297,2.23878 -1.16847,3.09428 -1.16847,1.16846 -1.16847,1.16846 -25.96601,1.16846 -24.797536,0 -24.797536,0 -25.966003,-1.16846 z m 41.788673,-7.08386 c -0.8541,-0.30972 -2.38271,-1.36853 -3.39696,-2.35287 -1.66159,-1.61264 -1.97369,-1.7404 -3.15451,-1.29146 -0.72077,0.27404 -1.40165,0.40711 -1.51306,0.29571 -0.23892,-0.23894 3.08959,-6.96475 3.44676,-6.96475 0.13421,0 1.79166,0.78369 3.68336,1.74151 3.43943,1.74151 3.43943,1.74151 1.8208,2.41075 -1.47323,0.60912 -1.55125,0.7366 -0.86862,1.41924 0.4125,0.41251 1.84372,0.85509 3.18052,0.98354 2.34836,0.22564 2.49371,0.16715 4.30085,-1.73261 1.59955,-1.68149 2.15346,-1.96617 3.82568,-1.96617 1.8015,0 1.93113,0.0842 1.64777,1.0711 -0.60239,2.09803 -2.88293,4.82329 -4.94895,5.914 -2.32071,1.22519 -5.44074,1.40875 -8.02364,0.47201 z m 7.74149,-9.69838 c -3.33231,-1.7184 -3.33231,-1.7184 -1.6726,-2.40409 1.65968,-0.68568 1.65968,-0.68568 0.5423,-1.59049 -0.73153,-0.59235 -1.86435,-0.9048 -3.28053,-0.9048 -1.90972,0 -2.37858,0.22644 -4.00147,1.93246 -1.6007,1.68267 -2.06799,1.91339 -3.61563,1.78516 -1.47483,-0.12217 -1.75087,-0.30934 -1.62181,-1.09937 0.25236,-1.54496 2.0913,-3.96867 4.04835,-5.33562 3.76533,-2.63005 9.88172,-1.77495 12.89179,1.8023 1.03248,1.22704 1.32208,1.3333 2.45735,0.90169 0.70779,-0.26911 1.37807,-0.39815 1.48947,-0.28675 0.28915,0.28916 -3.13112,6.96953 -3.55387,6.94134 -0.19308,-0.0126 -1.85059,-0.79671 -3.68335,-1.74183 z m -30.106459,-10.1927 c -3.550813,-1.36476 -7.371725,-5.03044 -9.274669,-8.89784 -1.415679,-2.87713 -1.557602,-3.5613 -1.547544,-7.46041 0.009,-3.62372 0.206748,-4.71386 1.26647,-6.9944 1.673814,-3.60208 4.500602,-6.573 8.123313,-8.53757 2.845698,-1.54319 3.195559,-1.61399 7.974729,-1.61399 4.77918,0 5.12904,0.0707 7.97474,1.61399 3.6227,1.96457 6.4495,4.93549 8.12331,8.53757 1.05972,2.28054 1.25711,3.37068 1.26647,6.9944 0.0108,3.89911 -0.13189,4.58328 -1.54754,7.46041 -1.95135,3.96577 -5.72325,7.54175 -9.40983,8.92109 -3.55393,1.32968 -9.457,1.3191 -12.949449,-0.0232 z"
       id="path70" />
  </g>
</svg>
